<?xml version="1.0" standalone="no"?><!DOCTYPE svg PUBLIC "-//W3C//DTD SVG 1.1//EN" "http://www.w3.org/Graphics/SVG/1.1/DTD/svg11.dtd"><svg class="icon" width="200px" height="200.00px" viewBox="0 0 1024 1024" version="1.1" xmlns="http://www.w3.org/2000/svg"><path fill="currentcolor" d="M925.184 183.125333H571.050667c-7.168 0-13.994667-2.56-19.285334-7.338666l-65.024-57.173334c-12.458667-11.093333-28.501333-17.066667-45.056-17.066666H208.896c-27.477333 0.341333-49.493333 22.869333-49.322667 50.346666v67.242667H85.162667c-27.477333 0.341333-49.493333 22.869333-49.322667 50.346667v602.453333c-0.170667 27.477333 21.845333 50.005333 49.322667 50.346667h716.288c27.477333-0.341333 49.493333-22.869333 49.322666-50.346667v-67.242667h74.410667c27.477333-0.341333 49.493333-22.869333 49.322667-50.346666V233.301333c0.170667-27.477333-21.845333-50.005333-49.322667-50.176zM198.997333 151.893333c0-5.461333 4.266667-10.069333 9.898667-10.069333h232.789333c7.168 0 13.994667 2.56 19.285334 7.338667l65.024 57.173333c12.458667 11.093333 28.501333 17.066667 45.056 17.066667h354.133333c5.461333 0 9.898667 4.608 9.898667 10.069333v105.472h-85.674667c-5.290667-21.674667-24.576-37.888-47.957333-38.229333H447.317333c-7.168 0-13.994667-2.56-19.285333-7.338667l-65.024-57.173333c-12.458667-11.093333-28.501333-17.066667-45.056-17.066667h-118.954667V151.893333z m533.674667 511.829334h-118.101333c-10.752-0.341333-19.114667-8.874667-19.456-19.456-0.341333-11.093333 8.362667-20.309333 19.456-20.650667h118.101333c10.752 0.341333 19.114667 8.874667 19.456 19.456 0.512 10.922667-8.192 20.309333-19.456 20.650667z m0-96.597334H529.408c-11.093333 0-20.138667-9.045333-20.138667-20.138666 0-11.093333 9.045333-20.138667 20.138667-20.138667h203.264c11.093333 0 19.968 9.045333 19.968 19.968 0.170667 11.264-8.704 20.309333-19.968 20.309333z m78.677333-148.992H75.264v-148.821333c0-5.461333 4.266667-10.069333 9.898667-10.069333h232.789333c7.168 0 13.994667 2.56 19.285333 7.338666l65.024 57.173334c12.458667 11.093333 28.501333 17.066667 45.056 17.066666h354.133334c5.461333 0.170667 9.898667 4.608 9.898666 10.069334V418.133333z" /></svg>