<?xml version="1.0" standalone="no"?><!DOCTYPE svg PUBLIC "-//W3C//DTD SVG 1.1//EN" "http://www.w3.org/Graphics/SVG/1.1/DTD/svg11.dtd"><svg class="icon" width="200px" height="200.00px" viewBox="-40 -40 1104 1104" version="1.1" xmlns="http://www.w3.org/2000/svg"><path fill="currentcolor" d="M155.14496 809.472v-145.92c-14.848 13.312-34.304 22.528-58.88 28.672v-17.92c28.672-13.824 48.128-32.768 58.88-56.832h31.232v192.512h-31.232v-0.512zM288.77696 813.056c-46.08-1.024-69.632-34.304-70.144-98.816 1.024-65.536 24.576-98.816 70.144-100.864 45.568 0.512 69.12 34.304 69.632 100.864 0 66.048-23.552 98.816-69.632 98.816z m0-19.456c25.6 0.512 37.888-25.6 37.376-79.36 0.512-54.784-11.776-81.408-37.376-80.384-25.6 0-38.4 26.624-38.4 80.384 0 52.736 12.8 79.36 38.4 79.36zM434.69696 809.472v-145.92c-14.848 13.312-34.304 22.528-58.88 28.672v-17.92c28.672-13.824 48.128-32.768 58.88-56.832H465.92896v192.512h-31.232v-0.512zM568.32896 813.056c-46.08-1.024-69.632-34.304-70.144-98.816 1.024-65.536 24.576-98.816 70.144-100.864 45.568 0.512 69.12 34.304 69.632 100.864 0 66.048-23.04 98.816-69.632 98.816z m0-19.456c25.6 0.512 37.888-25.6 37.376-79.36 0.512-54.784-11.776-81.408-37.376-80.384-25.6 0-38.4 26.624-38.4 80.384 0 52.736 12.8 79.36 38.4 79.36zM731.65696 813.056c-46.08-1.024-69.632-34.304-70.144-98.816 1.024-65.536 24.576-98.816 70.144-100.864 45.568 0.512 69.12 34.304 69.632 100.864-0.512 66.048-23.552 98.816-69.632 98.816z m0-19.456c25.6 0.512 37.888-25.6 37.376-79.36 0.512-54.784-11.776-81.408-37.376-80.384-25.6 0-38.4 26.624-38.4 80.384 0 52.736 12.8 79.36 38.4 79.36zM877.57696 809.472v-145.92c-14.848 13.312-34.304 22.528-58.88 28.672v-17.92c28.672-13.824 48.128-32.768 58.88-56.832h31.232v192.512h-31.232v-0.512z"  /><path fill="currentcolor" d="M975.88096 53.76H48.13696c-26.624 0.512-48.128 22.016-48.128 49.152v818.176c-0.512 26.624 20.992 48.64 48.128 49.152h928.256c26.624-0.512 48.128-22.016 48.128-49.152V102.912c0-26.624-21.504-48.64-48.64-49.152z m0 196.608v191.488h-277.504V250.368h277.504z m-1.024 670.72H48.13696v-430.08h928.256l-1.536 430.08z m-324.096-670.72v191.488H373.25696V250.368h277.504zM384.00896 102.912c27.136-0.512 49.664 20.992 50.176 48.128s-20.992 49.664-48.128 50.176-49.664-20.992-50.176-48.128v-1.024c0-26.624 21.504-48.64 48.128-49.152z m-143.872 0c27.136-0.512 49.664 20.992 50.176 48.128s-20.992 49.664-48.128 50.176-49.664-20.992-50.176-48.128v-1.024c-0.512-26.624 20.992-48.64 48.128-49.152z m-143.872 0c27.136-0.512 49.664 20.992 50.176 48.128 0.512 27.136-20.992 49.664-48.128 50.176s-49.664-20.992-50.176-48.128v-1.024c-0.512-26.624 20.992-48.64 48.128-49.152-0.512 0 0 0 0 0z m0 147.456h229.376v191.488H48.13696V250.368h48.128z"  /></svg>